
<svg width="95" height="51" viewBox="0 0 95 51" fill="none" xmlns="http://www.w3.org/2000/svg">
<path d="M8.73206 41.293V50.6342H7.07207V45.9152L4.35961 49.4222L1.65999 45.9152V50.6342H0V41.293H0.106958L4.35961 46.694L8.63793 41.293H8.73206Z" fill="#703090"/>
<path d="M10.6357 46.8692V41.293H12.2957V46.8692C12.2957 48.7448 13.5792 49.2333 14.3579 49.2333C15.1365 49.2333 16.42 48.7448 16.42 46.8692V41.293H18.0757V46.8692C18.0757 49.2563 16.6211 50.8001 14.3579 50.8001C12.0947 50.8001 10.6357 49.2563 10.6357 46.8692Z" fill="#703090"/>
<path d="M20.164 48.0414C20.9932 48.7077 21.985 49.0985 23.0176 49.1659C24.2626 49.1659 24.6733 48.6267 24.6733 48.0553C24.6733 47.1751 23.7407 46.9677 22.7096 46.7511C21.6785 46.5345 19.4024 46.1935 19.4024 43.9307C19.4024 41.7371 21.2421 41.1657 22.6967 41.1657C23.8734 41.1343 25.0213 41.5596 25.9312 42.3639L25.0199 43.7187C24.2903 43.155 23.419 42.8433 22.5213 42.8247C21.8667 42.8247 21.0624 43.0413 21.0624 43.7694C21.0624 44.622 22.162 44.8524 23.0775 45.0552C24.1171 45.2856 26.3333 45.4653 26.3333 47.9677C26.3333 49.894 24.9942 50.8249 23.039 50.8249C21.6866 50.8465 20.3719 50.3444 19.334 49.4101L20.164 48.0414Z" fill="#703090"/>
<path d="M29.3659 42.8783V45.2286H33.5587V46.8139H29.3659V49.072H34.0721V50.6527H27.7188V41.293H34.0934V42.8783H29.3659Z" fill="#703090"/>
<path d="M35.8096 46.8692V41.293H37.4696V46.8692C37.4696 48.7448 38.7531 49.2333 39.5317 49.2333C40.3104 49.2333 41.5896 48.7448 41.5896 46.8692V41.293H43.2496V46.8692C43.2496 49.2563 41.7907 50.8001 39.5317 50.8001C37.2728 50.8001 35.8096 49.2563 35.8096 46.8692Z" fill="#703090"/>
<path d="M53.8766 41.293V50.6342H52.2166V45.9152L49.5041 49.4222L46.8045 45.9152V50.6342H45.1445V41.293H45.2515L49.5041 46.694L53.7825 41.293H53.8766Z" fill="#703090"/>
<path d="M63.0798 41.293L58.9555 50.6342H58.8613L54.7627 41.293H56.5853L58.917 46.7171L61.2529 41.293H63.0798Z" fill="#703090"/>
<path d="M65.6126 42.8783V45.2286H69.8096V46.8139H65.6126V49.072H70.3188V50.6527H63.9697V41.293H70.3401V42.8783H65.6126Z" fill="#703090"/>
<path d="M73.7067 47.6599V50.6323H72.0596V41.2911H75.9913C76.39 41.2692 76.7884 41.3377 77.1609 41.4921C77.5335 41.6465 77.8718 41.8834 78.154 42.1874C78.4362 42.4914 78.6561 42.8558 78.7995 43.2571C78.9428 43.6584 79.0064 44.0876 78.9861 44.517C78.9861 45.9225 78.2759 47.1852 77.185 47.5032L79.3541 50.6416H77.3732L75.3581 47.6691L73.7067 47.6599ZM73.7067 46.1023H75.602C76.9967 46.1023 77.3133 45.2866 77.3133 44.4939C77.3133 43.5722 76.8042 42.8764 75.602 42.8764H73.7067V46.1023Z" fill="#703090"/>
<path d="M81.0868 48.0414C81.9164 48.707 82.908 49.0977 83.9404 49.1659C85.1854 49.1659 85.6004 48.6267 85.6004 48.0553C85.6004 47.1751 84.6635 46.9677 83.6324 46.7511C82.6013 46.5345 80.3253 46.1935 80.3253 43.9307C80.3253 41.7371 82.1649 41.1657 83.6196 41.1657C84.7962 41.1343 85.9441 41.5596 86.8539 42.3639L85.9427 43.7187C85.2131 43.155 84.3418 42.8433 83.4442 42.8247C82.7896 42.8247 81.9853 43.0413 81.9853 43.7694C81.9853 44.622 83.0848 44.8524 84.0003 45.0552C85.04 45.2856 87.2561 45.4653 87.2561 47.9677C87.2561 49.894 85.917 50.8249 83.9618 50.8249C82.6094 50.8465 81.2947 50.3444 80.2568 49.4101L81.0868 48.0414Z" fill="#703090"/>
<path d="M90.2722 42.8783V45.2286H94.4649V46.8139H90.2722V49.072H94.9997V50.6527H88.625V41.293H94.9997V42.8783H90.2722Z" fill="#703090"/>
<path d="M24.7969 23.1076L27.8217 7.25L30.8464 23.1076H24.7969Z" fill="#703090"/>
<path d="M37.0205 29.3744L42.3042 1.69629L47.5837 29.3744H37.0205Z" fill="#703090"/>
<path d="M38.6797 4.76562L34.3843 27.2731L30.0889 4.76562H38.6797Z" fill="#703090"/>
<path d="M68.3458 4.76562L64.0503 27.2731L59.7549 4.76562H68.3458Z" fill="#463391"/>
<path d="M45.0166 0H56.076L62.3352 32.7889H51.2758L45.0166 0Z" fill="#463391"/>
</svg>
