<svg width="201" height="33" viewBox="0 0 201 33" fill="none" xmlns="http://www.w3.org/2000/svg">
<path d="M67.5117 9.19971V23.654H64.9431V16.352L60.7459 21.7786L56.5686 16.352V23.654H54V9.19971H54.1655L60.7459 17.5571L67.366 9.19971H67.5117Z" fill="#703090"/>
<path d="M70.4575 17.8281V9.19971H73.0261V17.8281C73.0261 20.7304 75.0122 21.4862 76.217 21.4862C77.4219 21.4862 79.4079 20.7304 79.4079 17.8281V9.19971H81.9699V17.8281C81.9699 21.5219 79.7191 23.9107 76.217 23.9107C72.715 23.9107 70.4575 21.5219 70.4575 17.8281Z" fill="#703090"/>
<path d="M85.2015 19.6418C86.4846 20.6727 88.0193 21.2775 89.6172 21.3817C91.5436 21.3817 92.1791 20.5474 92.1791 19.6632C92.1791 18.3012 90.736 17.9803 89.1405 17.6451C87.5451 17.31 84.0232 16.7823 84.0232 13.281C84.0232 9.88673 86.8698 9.0025 89.1206 9.0025C90.9413 8.954 92.7176 9.61201 94.1254 10.8565L92.7154 12.953C91.5865 12.0807 90.2383 11.5983 88.8492 11.5696C87.8363 11.5696 86.5918 11.9048 86.5918 13.0314C86.5918 14.3507 88.2931 14.7072 89.7098 15.021C91.3185 15.3775 94.7477 15.6556 94.7477 19.5277C94.7477 22.5084 92.6756 23.9488 89.6503 23.9488C87.5575 23.9822 85.5232 23.2054 83.9172 21.7597L85.2015 19.6418Z" fill="#703090"/>
<path d="M99.4411 11.6527V15.2895H105.929V17.7425H99.4411V21.2367H106.723V23.6825H96.8923V9.19971H106.756V11.6527H99.4411Z" fill="#703090"/>
<path d="M109.411 17.8281V9.19971H111.979V17.8281C111.979 20.7304 113.965 21.4862 115.17 21.4862C116.375 21.4862 118.354 20.7304 118.354 17.8281V9.19971H120.923V17.8281C120.923 21.5219 118.666 23.9107 115.17 23.9107C111.675 23.9107 109.411 21.5219 109.411 17.8281Z" fill="#703090"/>
<path d="M137.367 9.19971V23.654H134.798V16.352L130.601 21.7786L126.424 16.352V23.654H123.855V9.19971H124.021L130.601 17.5571L137.221 9.19971H137.367Z" fill="#703090"/>
<path d="M151.607 9.19971L145.225 23.654H145.08L138.738 9.19971H141.558L145.166 17.5928L148.78 9.19971H151.607Z" fill="#703090"/>
<path d="M155.526 11.6527V15.2895H162.021V17.7425H155.526V21.2367H162.808V23.6825H152.984V9.19971H162.841V11.6527H155.526Z" fill="#703090"/>
<path d="M168.05 19.0534V23.6528H165.501V9.19852H171.585C172.202 9.16474 172.819 9.27074 173.395 9.50964C173.972 9.74855 174.495 10.1151 174.932 10.5855C175.368 11.0559 175.709 11.6198 175.931 12.2407C176.152 12.8616 176.251 13.5257 176.219 14.1901C176.219 16.3651 175.12 18.3189 173.432 18.811L176.789 23.6671H173.724L170.606 19.0677L168.05 19.0534ZM168.05 16.6432H170.983C173.141 16.6432 173.631 15.381 173.631 14.1545C173.631 12.7283 172.843 11.6515 170.983 11.6515H168.05V16.6432Z" fill="#703090"/>
<path d="M179.47 19.6418C180.753 20.6716 182.288 21.2763 183.885 21.3817C185.812 21.3817 186.454 20.5474 186.454 19.6632C186.454 18.3012 185.004 17.9803 183.409 17.6451C181.813 17.31 178.291 16.7823 178.291 13.281C178.291 9.88673 181.138 9.0025 183.389 9.0025C185.21 8.954 186.986 9.61201 188.394 10.8565L186.984 12.953C185.855 12.0807 184.507 11.5983 183.117 11.5696C182.105 11.5696 180.86 11.9048 180.86 13.0314C180.86 14.3507 182.561 14.7072 183.978 15.021C185.587 15.3775 189.016 15.6556 189.016 19.5277C189.016 22.5084 186.944 23.9488 183.919 23.9488C181.826 23.9822 179.791 23.2054 178.186 21.7597L179.47 19.6418Z" fill="#703090"/>
<path d="M193.684 11.6527V15.2895H200.172V17.7425H193.684V21.2367H201V23.6825H191.136V9.19971H201V11.6527H193.684Z" fill="#703090"/>
<svg>
<path d="M0 23.1076L3.02478 7.25L6.04956 23.1076H0Z" fill="#703090"/>
<path d="M12.2227 29.3735L17.5064 1.69531L22.7858 29.3735H12.2227Z" fill="#703090"/>
<path d="M13.8829 4.76562L9.58743 27.2731L5.29199 4.76562H13.8829Z" fill="#703090"/>
<path d="M43.5489 4.76562L39.2535 27.2731L34.958 4.76562H43.5489Z" fill="#463391"/>
<path d="M20.2188 0H31.2782L37.5374 32.7889H26.4779L20.2188 0Z" fill="#463391"/>
</svg>
</svg>