
<svg width="24" height="28" viewBox="0 0 24 28" fill="none" xmlns="http://www.w3.org/2000/svg">
<g clip-path="url(#clip0_255_4439)">
<path d="M13.5 14C13.5 13.7679 13.421 13.5454 13.2803 13.3813C13.1397 13.2172 12.9489 13.125 12.75 13.125L3.75 13.125C3.55109 13.125 3.36032 13.2172 3.21967 13.3813C3.07902 13.5454 3 13.7679 3 14C3 14.2321 3.07902 14.4546 3.21967 14.6187C3.36032 14.7828 3.55109 14.875 3.75 14.875L12.75 14.875C12.9489 14.875 13.1397 14.7828 13.2803 14.6187C13.421 14.4546 13.5 14.2321 13.5 14Z" fill="#1E1E1E"/>
<path d="M6 21.875C6 21.6429 5.92098 21.4204 5.78033 21.2563C5.63968 21.0922 5.44891 21 5.25 21L3.75 21C3.55109 21 3.36032 21.0922 3.21967 21.2563C3.07902 21.4204 3 21.6429 3 21.875C3 22.1071 3.07902 22.3296 3.21967 22.4937C3.36032 22.6578 3.55109 22.75 3.75 22.75L5.25 22.75C5.44891 22.75 5.63968 22.6578 5.78033 22.4937C5.92098 22.3296 6 22.1071 6 21.875Z" fill="#1E1E1E"/>
<path d="M9 24.5L9 22.75L20.25 22.75C20.4489 22.75 20.6397 22.6578 20.7803 22.4937C20.921 22.3296 21 22.1071 21 21.875C21 21.6429 20.921 21.4204 20.7803 21.2563C20.6397 21.0922 20.4489 21 20.25 21L9 21L9 19.25C9 19.0179 8.92098 18.7954 8.78033 18.6313C8.63968 18.4672 8.44891 18.375 8.25 18.375C8.05109 18.375 7.86032 18.4672 7.71967 18.6313C7.57902 18.7954 7.5 19.0179 7.5 19.25L7.5 24.5C7.5 24.7321 7.57902 24.9546 7.71967 25.1187C7.86032 25.2828 8.05109 25.375 8.25 25.375C8.44891 25.375 8.63968 25.2828 8.78033 25.1187C8.92098 24.9546 9 24.7321 9 24.5Z" fill="#1E1E1E"/>
<path d="M9 6.125C9 5.89294 8.92098 5.67038 8.78033 5.50628C8.63968 5.34219 8.44891 5.25 8.25 5.25L3.75 5.25C3.55109 5.25 3.36032 5.34219 3.21967 5.50628C3.07902 5.67038 3 5.89294 3 6.125C3 6.35706 3.07902 6.57962 3.21967 6.74372C3.36032 6.90781 3.55109 7 3.75 7L8.25 7C8.44891 7 8.63968 6.90781 8.78033 6.74372C8.92098 6.57962 9 6.35706 9 6.125Z" fill="#1E1E1E"/>
<path d="M12 8.75L12 7L20.25 7C20.4489 7 20.6397 6.90781 20.7803 6.74372C20.921 6.57962 21 6.35706 21 6.125C21 5.89294 20.921 5.67038 20.7803 5.50628C20.6397 5.34219 20.4489 5.25 20.25 5.25L12 5.25L12 3.5C12 3.26794 11.921 3.04538 11.7803 2.88128C11.6397 2.71719 11.4489 2.625 11.25 2.625C11.0511 2.625 10.8603 2.71719 10.7197 2.88128C10.579 3.04538 10.5 3.26794 10.5 3.5L10.5 8.75C10.5 8.98206 10.579 9.20462 10.7197 9.36872C10.8603 9.53281 11.0511 9.625 11.25 9.625C11.4489 9.625 11.6397 9.53281 11.7803 9.36872C11.921 9.20462 12 8.98206 12 8.75Z" fill="#1E1E1E"/>
<path d="M16.5 16.625L16.5 14.875L20.25 14.875C20.4489 14.875 20.6397 14.7828 20.7803 14.6187C20.921 14.4546 21 14.2321 21 14C21 13.7679 20.921 13.5454 20.7803 13.3813C20.6397 13.2172 20.4489 13.125 20.25 13.125L16.5 13.125L16.5 11.375C16.5 11.1429 16.421 10.9204 16.2803 10.7563C16.1397 10.5922 15.9489 10.5 15.75 10.5C15.5511 10.5 15.3603 10.5922 15.2197 10.7563C15.079 10.9204 15 11.1429 15 11.375L15 16.625C15 16.8571 15.079 17.0796 15.2197 17.2437C15.3603 17.4078 15.5511 17.5 15.75 17.5C15.9489 17.5 16.1397 17.4078 16.2803 17.2437C16.421 17.0796 16.5 16.8571 16.5 16.625Z" fill="#1E1E1E"/>
</g>
<defs>
<clipPath id="clip0_255_4439">
<rect width="28" height="24" fill="white" transform="translate(24) rotate(90)"/>
</clipPath>
</defs>
</svg>