<svg width="34" height="34" viewBox="0 0 34 34" fill="none" xmlns="http://www.w3.org/2000/svg">
<g opacity="0.8" clip-path="url(#clip0_956_692)">
<path fill= "#6f6f6f" d="M15.9961 5.52652L16.7238 6.31598L17.5105 5.52784C19.7067 3.37986 22.7485 2.40225 25.738 2.90158C30.2549 3.65682 33.5656 7.57911 33.5656 12.1777V12.5593C33.5656 15.2895 32.438 17.9013 30.445 19.7631L18.5987 30.8615C18.1071 31.322 17.458 31.5786 16.7828 31.5786C16.1075 31.5786 15.4585 31.322 14.9668 30.8615L3.11989 19.7631C1.12956 17.9013 0 15.2895 0 12.5593V12.1777C0 7.57911 3.31198 3.65682 7.8276 2.90158C10.758 2.40225 13.8589 3.37986 15.9961 5.52652C15.9961 5.52718 15.9371 5.52652 15.9961 5.52652ZM16.7238 10.783L13.7737 7.7041C12.3511 6.3344 10.3319 5.68441 8.34551 6.01598C5.34624 6.51795 3.14677 9.12513 3.14677 12.1777V12.5593C3.14677 14.4145 3.91445 16.1908 5.26691 17.4539L16.7828 28.2431L28.3013 17.4539C29.6518 16.1908 30.4188 14.4145 30.4188 12.5593V12.1777C30.4188 9.12513 28.2161 6.51795 25.2201 6.01598C23.2337 5.68441 21.2145 6.3344 19.7919 7.7041L16.7238 10.783Z" fill="#858585"/>
</g>
<defs>
<clipPath id="clip0_956_692">
<rect width="33.5656" height="33.6835" fill="white"/>
</clipPath>
</defs>
</svg>
