<svg width="20" height="24" viewBox="0 0 24 24" fill="none" xmlns="http://www.w3.org/2000/svg">
<path d="M3.54882 19.4915L8.59257 5.60711C8.63575 5.4883 8.70825 5.38233 8.80335 5.29905C8.89846 5.21577 9.01306 5.15788 9.13653 5.13075C9.26 5.10363 9.38832 5.10815 9.50957 5.1439C9.63082 5.17965 9.74107 5.24547 9.83007 5.33524L18.6613 14.1665C18.7511 14.2555 18.8169 14.3657 18.8527 14.487C18.8884 14.6082 18.8929 14.7366 18.8658 14.86C18.8387 14.9835 18.7808 15.0981 18.6975 15.1932C18.6142 15.2883 18.5083 15.3608 18.3894 15.404L4.50507 20.4477C4.37149 20.4988 4.22599 20.5101 4.08613 20.4803C3.94627 20.4504 3.81804 20.3808 3.71692 20.2796C3.61581 20.1785 3.54612 20.0503 3.51629 19.9104C3.48646 19.7706 3.49776 19.6251 3.54882 19.4915V19.4915Z" stroke="#B57A50" stroke-width="1.5" stroke-linecap="round" stroke-linejoin="round"/>
<path d="M15.75 6.75C15.75 6.75 15.75 4.5 18 4.5C20.25 4.5 20.25 2.25 20.25 2.25" stroke="#B57A50" stroke-width="1.5" stroke-linecap="round" stroke-linejoin="round"/>
<path d="M9.59844 18.6004L5.39844 14.4004" stroke="#B57A50" stroke-width="1.5" stroke-linecap="round" stroke-linejoin="round"/>
<path d="M13.5 1.5V3.75" stroke="#B57A50" stroke-width="1.5" stroke-linecap="round" stroke-linejoin="round"/>
<path d="M20.25 10.5L21.75 12" stroke="#B57A50" stroke-width="1.5" stroke-linecap="round" stroke-linejoin="round"/>
<path d="M20.25 7.5L22.5 6.75" stroke="#B57A50" stroke-width="1.5" stroke-linecap="round" stroke-linejoin="round"/>
<path d="M7.20312 9.44922L14.5531 16.7992" stroke="#B57A50" stroke-width="1.5" stroke-linecap="round" stroke-linejoin="round"/>
</svg>