<svg width="30%" height="46" viewBox="0 0 46 46" fill="none" xmlns="http://www.w3.org/2000/svg">
<g clip-path="url(#clip0_255_7328)">
<rect width="46" height="46" rx="6" fill="white"/>
<path d="M35.4625 10H10.1625C8.4159 10 7 10.3134 7 10.7V16.3C7 16.6866 8.4159 17 10.1625 17H35.4625C37.2091 17 38.625 16.6866 38.625 16.3V10.7C38.625 10.3134 37.2091 10 35.4625 10Z" fill="#28473F"/>
<path d="M35.4625 19H10.1625C8.4159 19 7 19.3134 7 19.7V25.3C7 25.6866 8.4159 26 10.1625 26H35.4625C37.2091 26 38.625 25.6866 38.625 25.3V19.7C38.625 19.3134 37.2091 19 35.4625 19Z" fill="#28473F"/>
<path d="M35.4625 28H10.1625C8.4159 28 7 28.3134 7 28.7V34.3C7 34.6866 8.4159 35 10.1625 35H35.4625C37.2091 35 38.625 34.6866 38.625 34.3V28.7C38.625 28.3134 37.2091 28 35.4625 28Z" fill="#28473F"/>
</g>
<rect x="0.5" y="0.5" width="45" height="45" rx="5.5" stroke="#E1E1E1"/>
<defs>
<clipPath id="clip0_255_7328">
<rect width="46" height="46" rx="6" fill="white"/>
</clipPath>
</defs>
</svg>