
<svg width="35%" height="44" viewBox="0 0 44 44" fill="none" xmlns="http://www.w3.org/2000/svg">
<rect x="0.5" y="0.5" width="43" height="43" rx="5.5" fill="white"/>
<path opacity="0.12" d="M19.25 6.875H8.25C7.49061 6.875 6.875 7.49061 6.875 8.25V19.25C6.875 20.0094 7.49061 20.625 8.25 20.625H19.25C20.0094 20.625 20.625 20.0094 20.625 19.25V8.25C20.625 7.49061 20.0094 6.875 19.25 6.875Z" fill="#1E1E1E"/>
<path opacity="0.12" d="M35.75 6.875H24.75C23.9906 6.875 23.375 7.49061 23.375 8.25V19.25C23.375 20.0094 23.9906 20.625 24.75 20.625H35.75C36.5094 20.625 37.125 20.0094 37.125 19.25V8.25C37.125 7.49061 36.5094 6.875 35.75 6.875Z" fill="#1E1E1E"/>
<path opacity="0.12" d="M19.25 23.375H8.25C7.49061 23.375 6.875 23.9906 6.875 24.75V35.75C6.875 36.5094 7.49061 37.125 8.25 37.125H19.25C20.0094 37.125 20.625 36.5094 20.625 35.75V24.75C20.625 23.9906 20.0094 23.375 19.25 23.375Z" fill="#1E1E1E"/>
<path opacity="0.12" d="M35.75 23.375H24.75C23.9906 23.375 23.375 23.9906 23.375 24.75V35.75C23.375 36.5094 23.9906 37.125 24.75 37.125H35.75C36.5094 37.125 37.125 36.5094 37.125 35.75V24.75C37.125 23.9906 36.5094 23.375 35.75 23.375Z" fill="#1E1E1E"/>
<rect x="0.5" y="0.5" width="43" height="43" rx="5.5" stroke="#E1E1E1"/>
</svg>
